# Blender 3.1.0
# www.blender.org
mtllib cube.mtl
o Cube
v -0.500000 -0.500000 0.500000
v -0.500000 0.500000 0.500000
v -0.500000 0.500000 -0.500000
v -0.500000 -0.500000 -0.500000
v 0.500000 0.500000 -0.500000
v 0.500000 -0.500000 -0.500000
v 0.500000 0.500000 0.500000
v 0.500000 -0.500000 0.500000
vn -0.5000 -0.0000 -0.0000
vn -0.0000 -0.0000 -0.5000
vn 0.5000 -0.0000 -0.0000
vn -0.0000 -0.0000 0.5000
vn -0.0000 -0.5000 -0.0000
vn -0.0000 0.5000 -0.0000
vt 0.000000 0.000000
vt 1.000000 1.000000
vt 0.000000 1.000000
vt 1.000000 0.000000
vt 1.000000 1.000000
vt 0.000000 0.000000
vt 0.000000 1.000000
vt 0.000000 0.000000
vt 1.000000 0.000000
vt 1.000000 1.000000
vt 0.000000 1.000000
vt 1.000000 1.000000
vt 1.000000 0.000000
vt 0.000000 1.000000
vt 0.000000 0.000000
vt 1.000000 1.000000
vt 0.000000 0.000000
vt 0.000000 1.000000
vt 1.000000 1.000000
s 1
usemtl Default_OBJ
f 1/1/1 2/4/1 3/5/1 4/7/1
f 4/7/2 3/6/2 5/9/2 6/12/2
f 6/13/3 5/10/3 7/14/3 8/17/3
f 8/18/4 7/15/4 2/4/4 1/2/4
f 4/8/5 6/13/5 8/19/5 1/3/5
f 5/11/6 3/6/6 2/4/6 7/16/6